<?xml version="1.0" encoding="UTF-8" standalone="no"?>
<!-- Created with Inkscape (http://www.inkscape.org/) -->

<svg
   width="74.798mm"
   height="10.097mm"
   version="1.1"
   viewBox="0 0 74.798 10.097"
   id="svg50"
   sodipodi:docname="logo-bright-on-dark.svg"
   inkscape:version="1.1.2 (0a00cf5339, 2022-02-04)"
   xmlns:inkscape="http://www.inkscape.org/namespaces/inkscape"
   xmlns:sodipodi="http://sodipodi.sourceforge.net/DTD/sodipodi-0.dtd"
   xmlns="http://www.w3.org/2000/svg"
   xmlns:svg="http://www.w3.org/2000/svg">
  <defs
     id="defs54" />
  <sodipodi:namedview
     id="namedview52"
     pagecolor="#ffffff"
     bordercolor="#666666"
     borderopacity="1.0"
     inkscape:pageshadow="2"
     inkscape:pageopacity="0.0"
     inkscape:pagecheckerboard="0"
     inkscape:document-units="mm"
     showgrid="false"
     inkscape:zoom="55.747914"
     inkscape:cx="12.25158"
     inkscape:cy="34.602192"
     inkscape:window-width="3840"
     inkscape:window-height="2133"
     inkscape:window-x="0"
     inkscape:window-y="27"
     inkscape:window-maximized="1"
     inkscape:current-layer="g36" />
  <g
     transform="translate(-68.745 -123.21)"
     id="g48">
    <g
       transform="translate(-58.781 2.0918)"
       id="g46">
      <g
         transform="translate(-13.969 -52.28)"
         fill="#2ecc70"
         id="g44">
        <path
           transform="matrix(.26458 0 0 .26458 15.627 43.141)"
           d="m476.84 517.88c-0.3344 0.96411-0.4043 1.7333-0.4043 2.9277v0.95898c0 0.45332 0.0268 0.82781 0.0801 1.1211h24.377l-0.0293-5h-17.785c-0.95745 0.01-1.7806 0.0111-2.6113-8e-3h-0.10937z"
           id="path40" />
        <path
           d="m146.73 178.52-0.67645 0.67644 1.5798 1.5798-1.5798 1.5792 0.67645 0.67644 2.2557-2.2557z"
           stroke-width="0"
           id="path42" />
      </g>
      <g
         transform="translate(0 32.408)"
         id="g38">
        <g
           transform="translate(-5.6198 -4.7053)"
           id="g28">
          <g
             fill="#fff"
             id="g16">
            <path
               d="m152.29 97.013q-0.1905 0.21167-0.51858 0.5715-0.3175 0.35983-0.68792 0.79375-0.37042 0.43392-0.75142 0.91017-0.37041 0.47625-0.67733 0.92075h2.6882v1.3123h-4.6038v-0.93133q0.22225-0.381 0.52916-0.81492 0.3175-0.4445 0.65617-0.889 0.34925-0.4445 0.68792-0.85725 0.33866-0.42333 0.62441-0.762h-2.3707v-1.3123h4.4238z"
               id="path2" />
            <path
               d="m156.99 98.325q-0.21167 0.80433-0.45509 1.5981-0.23283 0.79375-0.49741 1.5981h-1.2277q-0.1905-0.4445-0.41275-1.0583-0.22225-0.61384-0.46566-1.3335-0.23284-0.73025-0.48684-1.5346-0.24341-0.81492-0.47625-1.6404h1.6616q0.0847 0.381 0.17992 0.83608 0.10583 0.4445 0.21167 0.92075 0.11641 0.47625 0.23283 0.96308 0.127 0.47625 0.254 0.92075 0.13758-0.46567 0.26458-0.9525 0.13759-0.48683 0.254-0.9525 0.127-0.47625 0.23284-0.91017 0.11641-0.4445 0.20108-0.8255h1.143q0.0847 0.381 0.1905 0.8255 0.10583 0.43392 0.22225 0.91017 0.11642 0.46567 0.24342 0.9525 0.127 0.48683 0.26458 0.9525 0.127-0.4445 0.254-0.92075 0.127-0.48683 0.23283-0.96308 0.11642-0.47625 0.21167-0.92075 0.10583-0.45508 0.1905-0.83608h1.6404q-0.23284 0.8255-0.48684 1.6404-0.24341 0.80433-0.48683 1.5346-0.23283 0.71967-0.46567 1.3335-0.22225 0.61383-0.41275 1.0583h-1.2277q-0.26459-0.80433-0.51859-1.5981-0.254-0.79375-0.46566-1.5981z"
               id="path4" />
            <path
               d="m163.92 100.42q0.23284 0 0.4445-0.0106 0.21167-0.0106 0.33867-0.0317v-1.1959q-0.0953-0.02117-0.28575-0.04233-0.1905-0.02117-0.34925-0.02117-0.22225 0-0.42333 0.03175-0.1905 0.02117-0.33867 0.09525t-0.23283 0.20108q-0.0847 0.127-0.0847 0.3175 0 0.37042 0.24342 0.51858 0.254 0.13759 0.68791 0.13759zm-0.127-4.6143q0.6985 0 1.1642 0.15875 0.46567 0.15875 0.74083 0.45508 0.28575 0.29633 0.40217 0.71967 0.11642 0.42333 0.11642 0.94192v3.2808q-0.33867 0.0741-0.94192 0.16934-0.60325 0.10583-1.4605 0.10583-0.53975 0-0.98425-0.0952-0.43392-0.0953-0.75142-0.30692-0.3175-0.22225-0.48683-0.5715t-0.16933-0.85725q0-0.48683 0.1905-0.8255 0.20108-0.33867 0.52916-0.53975 0.32809-0.20108 0.75142-0.28575 0.42333-0.09525 0.87842-0.09525 0.30691 0 0.53975 0.03175 0.24341 0.02117 0.39158 0.0635v-0.14817q0-0.40217-0.24342-0.64558-0.24341-0.24342-0.84666-0.24342-0.40217 0-0.79375 0.0635-0.39159 0.05292-0.67734 0.15875l-0.20108-1.27q0.13758-0.04233 0.33867-0.08467 0.21166-0.05292 0.45508-0.08467 0.24342-0.04233 0.508-0.0635 0.27517-0.03175 0.55033-0.03175z"
               id="path6" />
            <path
               d="m167.64 96.145q0.40217-0.11642 1.0372-0.21167 0.635-0.10583 1.3335-0.10583 0.70908 0 1.1748 0.1905 0.47625 0.17992 0.75141 0.51858 0.27517 0.33867 0.39159 0.80433 0.11641 0.46567 0.11641 1.0372v3.1432h-1.5769v-2.9527q0-0.762-0.20109-1.0795-0.20108-0.3175-0.75141-0.3175-0.16934 0-0.35984 0.02117-0.1905 0.01058-0.33866 0.03175v4.2968h-1.5769z"
               id="path8" />
            <path
               d="m178.06 97.013q-0.1905 0.21167-0.51858 0.5715-0.3175 0.35983-0.68792 0.79375-0.37042 0.43392-0.75142 0.91017-0.37041 0.47625-0.67733 0.92075h2.6882v1.3123h-4.6038v-0.93133q0.22225-0.381 0.52916-0.81492 0.3175-0.4445 0.65617-0.889 0.34925-0.4445 0.68792-0.85725 0.33866-0.42333 0.62441-0.762h-2.3707v-1.3123h4.4238z"
               id="path10" />
            <path
               d="m180.75 101.52h-1.5769v-5.5668h1.5769zm0.14816-7.1755q0 0.43392-0.28575 0.68792-0.27516 0.24342-0.65616 0.24342t-0.66675-0.24342q-0.27517-0.254-0.27517-0.68792 0-0.43392 0.27517-0.67733 0.28575-0.254 0.66675-0.254t0.65616 0.254q0.28575 0.24342 0.28575 0.67733z"
               id="path12" />
            <path
               d="m183.57 98.558q0 1.3229 1.0689 1.3229 0.24341 0 0.45508-0.0635t0.35983-0.14817v-2.5188q-0.11641-0.02117-0.27516-0.03175-0.15875-0.02117-0.37042-0.02117-0.62442 0-0.93133 0.41275-0.30692 0.41275-0.30692 1.0478zm3.4608 2.2648q0 1.3652-0.6985 2.0214-0.68792 0.66675-2.1378 0.66675-0.508 0-1.016-0.0952-0.508-0.0847-0.94192-0.23284l0.27517-1.3229q0.37041 0.14816 0.77258 0.23283 0.41275 0.0847 0.93133 0.0847 0.67734 0 0.9525-0.29633 0.28575-0.29634 0.28575-0.762v-0.20109q-0.254 0.11642-0.52916 0.17992-0.26459 0.0529-0.58209 0.0529-1.1536 0-1.7674-0.67733-0.61384-0.68792-0.61384-1.9156 0-0.61383 0.1905-1.1112 0.1905-0.508 0.55034-0.86783 0.37041-0.35983 0.89958-0.55033 0.52917-0.20108 1.1959-0.20108 0.28575 0 0.58208 0.03175 0.30692 0.02117 0.60325 0.0635t0.56092 0.10583q0.27516 0.05292 0.48683 0.11642z"
               id="path14" />
          </g>
          <g
             fill="#2ecc70"
             id="g26">
            <path
               d="m188.25 98.78q0-0.74083 0.22225-1.2912 0.23284-0.56092 0.60325-0.93133 0.37042-0.37042 0.84667-0.56092 0.48683-0.1905 0.99483-0.1905 1.1853 0 1.8732 0.73025 0.68792 0.71967 0.68792 2.1272 0 0.13758-0.0106 0.30692-0.0106 0.15875-0.0212 0.28575h-3.5772q0.0529 0.48683 0.45509 0.77258 0.40216 0.28575 1.0795 0.28575 0.43391 0 0.84666-0.0741 0.42334-0.0847 0.68793-0.20108l0.21166 1.2806q-0.127 0.0635-0.33866 0.127-0.21168 0.0635-0.47625 0.10583-0.254 0.0529-0.55034 0.0847t-0.59266 0.0318q-0.75143 0-1.3123-0.22225-0.55034-0.22225-0.92075-0.60325-0.35984-0.39158-0.53975-0.92075-0.16934-0.52917-0.16934-1.143zm3.7042-0.60325q-0.0106-0.20108-0.0741-0.39158-0.0529-0.1905-0.17992-0.33867-0.11641-0.14817-0.30691-0.24342-0.17992-0.09525-0.45509-0.09525-0.26458 0-0.45508 0.09525-0.1905 0.08467-0.3175 0.23283-0.127 0.14817-0.20108 0.34925-0.0635 0.1905-0.0952 0.39158z"
               id="path18" />
            <path
               d="m196.27 101.52h-1.5769v-5.5668h1.5769zm0.14817-7.1755q0 0.43392-0.28575 0.68792-0.27517 0.24342-0.65617 0.24342t-0.66675-0.24342q-0.27516-0.254-0.27516-0.68792 0-0.43392 0.27516-0.67733 0.28575-0.254 0.66675-0.254t0.65617 0.254q0.28575 0.24342 0.28575 0.67733z"
               id="path20" />
            <path
               d="m197.75 96.145q0.40218-0.11642 1.0372-0.21167 0.635-0.10583 1.3335-0.10583 0.70907 0 1.1748 0.1905 0.47625 0.17992 0.75141 0.51858 0.27516 0.33867 0.39159 0.80433 0.11641 0.46567 0.11641 1.0372v3.1432h-1.5769v-2.9527q0-0.762-0.20109-1.0795t-0.75141-0.3175q-0.16934 0-0.35984 0.02117-0.1905 0.01058-0.33866 0.03175v4.2968h-1.5769z"
               id="path22" />
            <path
               d="m205.58 100.39q0.43392 0 0.61384-0.0847 0.17991-0.0847 0.17991-0.32808 0-0.1905-0.23283-0.32808-0.23283-0.14817-0.70908-0.32808-0.37042-0.13758-0.67734-0.28575-0.29633-0.14817-0.508-0.34925-0.21166-0.21167-0.32808-0.49742t-0.11642-0.68792q0-0.78317 0.58209-1.2382 0.58208-0.45508 1.5981-0.45508 0.508 0 0.97367 0.09525 0.46566 0.08467 0.74083 0.1905l-0.27517 1.2277q-0.27516-0.09525-0.60325-0.16933-0.3175-0.07408-0.71966-0.07408-0.74084 0-0.74084 0.41275 0 0.09525 0.0318 0.16933 0.0317 0.07408 0.127 0.14817 0.0952 0.0635 0.254 0.14817 0.16934 0.07408 0.42334 0.16933 0.51858 0.1905 0.85725 0.381 0.33866 0.17992 0.52916 0.40217 0.20109 0.21167 0.27517 0.47625 0.0847 0.26458 0.0847 0.61383 0 0.8255-0.62442 1.2488-0.61383 0.42333-1.7462 0.42333-0.74083 0-1.2382-0.127-0.48683-0.127-0.67733-0.21167l0.26458-1.2806q0.40217 0.15875 0.8255 0.254 0.42333 0.0847 0.83608 0.0847z"
               id="path24" />
          </g>
        </g>
        <g
           transform="translate(-11.443 -84.379)"
           id="g36">
          <path
             style="stroke-width:0.26458;fill:#ffffff"
             d="m 141.33449,173.67424 c -0.45624,0.006 -0.88552,0.10123 -1.28879,0.28577 -0.40923,0.18344 -0.76906,0.41973 -1.07952,0.709 l 0.78289,1.10068 c 0.0494,-0.0494 0.12341,-0.11308 0.22221,-0.19069 0.0988,-0.0847 0.21528,-0.16578 0.34932,-0.24338 0.14111,-0.0847 0.293,-0.15497 0.45527,-0.21135 0.16933,-0.0634 0.34901,-0.0956 0.5395,-0.0956 0.26106,0 0.4799,0.0637 0.65629,0.19068 0.17638,0.127 0.26458,0.34586 0.26458,0.65629 0,0.1411 -0.0316,0.28213 -0.0951,0.42323 -0.0635,0.13406 -0.15169,0.27177 -0.26458,0.4129 -0.11289,0.13404 -0.24354,0.27506 -0.39171,0.42322 -0.14817,0.1411 -0.30713,0.293 -0.47646,0.45527 -0.21873,0.21166 -0.44084,0.4229 -0.66661,0.63456 -0.21873,0.21167 -0.41634,0.44138 -0.59271,0.68834 -0.12172,0.16552 -0.22839,0.34085 -0.31988,0.52656 h 1.76835 c 0.0573,-0.0676 0.11771,-0.13708 0.1819,-0.20928 0.11289,-0.127 0.22939,-0.25056 0.34932,-0.37052 0.127,-0.127 0.2435,-0.23968 0.34933,-0.33848 0.20461,-0.19049 0.41259,-0.39192 0.62425,-0.60356 0.21167,-0.21169 0.40221,-0.42999 0.57154,-0.65578 0.16933,-0.23281 0.30708,-0.47289 0.41288,-0.71985 0.10585,-0.24693 0.15865,-0.50444 0.15865,-0.77254 h -5.3e-4 c 0,-0.32456 -0.0495,-0.61364 -0.14831,-0.86764 -0.0917,-0.26106 -0.23981,-0.4799 -0.44442,-0.65629 -0.19755,-0.18343 -0.45177,-0.3244 -0.76223,-0.42322 -0.31043,-0.0988 -0.68063,-0.1483 -1.11102,-0.1483 -0.0148,0 -0.0297,-1.9e-4 -0.0444,0 z"
             id="path30" />
          <path
             d="m145.35 175.37c0.20461-0.0847 0.41628-0.17991 0.635-0.28575 0.22578-0.11289 0.4445-0.23283 0.65617-0.35983 0.21167-0.13406 0.41275-0.27164 0.60325-0.41275 0.19755-0.14817 0.37394-0.30339 0.52917-0.46567h1.1007v7.3342h-1.5769v-5.2811c-0.21167 0.14111-0.44803 0.27164-0.70909 0.39158-0.26105 0.11289-0.51505 0.21167-0.762 0.29634z"
             fill="#fff"
             id="path32" />
        </g>
      </g>
    </g>
  </g>
</svg>
