<?xml version="1.0" encoding="UTF-8" standalone="no"?>
<!-- Created with Inkscape (http://www.inkscape.org/) -->

<svg
   width="11.518461mm"
   height="11.518461mm"
   viewBox="0 0 11.518461 11.518461"
   version="1.1"
   id="svg1480"
   inkscape:version="1.1.2 (0a00cf5339, 2022-02-04)"
   sodipodi:docname="logo-image-top-text-bottom.svg"
   xmlns:inkscape="http://www.inkscape.org/namespaces/inkscape"
   xmlns:sodipodi="http://sodipodi.sourceforge.net/DTD/sodipodi-0.dtd"
   xmlns="http://www.w3.org/2000/svg"
   xmlns:svg="http://www.w3.org/2000/svg">
  <sodipodi:namedview
     id="namedview1482"
     pagecolor="#ffffff"
     bordercolor="#666666"
     borderopacity="1.0"
     inkscape:pageshadow="2"
     inkscape:pageopacity="0.0"
     inkscape:pagecheckerboard="0"
     inkscape:document-units="mm"
     showgrid="false"
     showguides="true"
     inkscape:guide-bbox="true"
     inkscape:zoom="24.886869"
     inkscape:cx="35.721649"
     inkscape:cy="25.595827"
     inkscape:window-width="2816"
     inkscape:window-height="1725"
     inkscape:window-x="854"
     inkscape:window-y="307"
     inkscape:window-maximized="0"
     inkscape:current-layer="g35900-6-6-3"
     fit-margin-top="0"
     fit-margin-left="0"
     fit-margin-right="0"
     fit-margin-bottom="0">
    <sodipodi:guide
       position="1.0008634,2.6199292"
       orientation="1,0"
       id="guide1684" />
    <sodipodi:guide
       position="7.5513499,-1.6409333"
       orientation="1,0"
       id="guide1033" />
  </sodipodi:namedview>
  <defs
     id="defs1477" />
  <g
     inkscape:label="Ebene 1"
     inkscape:groupmode="layer"
     id="layer1"
     transform="translate(-63.041522,-12.364632)">
    <rect
       style="fill:#1a1a1a;stroke:#ff2af4;stroke-width:0;stroke-miterlimit:0"
       id="rect1574"
       width="11.51846"
       height="11.51846"
       x="63.041523"
       y="12.364633" />
    <g
       id="g35900-6-6-3"
       transform="translate(-63.629477,-109.0832)">
      <g
         id="g70291-8-9-6"
         transform="translate(0,32.408416)"
         style="font-style:normal;font-variant:normal;font-weight:normal;font-stretch:normal;font-size:10.5833px;line-height:1.25;font-family:Ubuntu;-inkscape-font-specification:Ubuntu;letter-spacing:0px;word-spacing:0px;fill:#000000;fill-opacity:1;stroke:none;stroke-width:0.264583">
        <g
           id="g66476-9-2-7"
           transform="matrix(0.16245078,0,0,0.16245078,103.65138,83.583276)"
           style="stroke-width:1.6287">
          <path
             inkscape:connector-curvature="0"
             d="m 152.28697,97.012881 q -0.1905,0.211667 -0.51858,0.5715 -0.3175,0.359834 -0.68792,0.79375 -0.37042,0.433917 -0.75142,0.910167 -0.37041,0.47625 -0.67733,0.920752 h 2.68817 v 1.31233 h -4.60375 v -0.93133 q 0.22225,-0.381 0.52916,-0.814919 0.3175,-0.4445 0.65617,-0.889 0.34925,-0.4445 0.68792,-0.85725 0.33866,-0.423333 0.62441,-0.762 h -2.37066 v -1.312333 h 4.42383 z"
             style="font-style:normal;font-variant:normal;font-weight:bold;font-stretch:normal;font-size:10.5833px;line-height:1.25;font-family:Ubuntu;-inkscape-font-specification:'Ubuntu Bold';letter-spacing:0px;word-spacing:0px;fill:#ffffff;fill-opacity:1;stroke:none;stroke-width:1.6287"
             id="path1136-2-4-3-3-2-2-2-5" />
          <path
             inkscape:connector-curvature="0"
             d="m 156.98594,98.325215 q -0.21167,0.804333 -0.45509,1.598083 -0.23283,0.793752 -0.49741,1.598082 h -1.22767 q -0.1905,-0.4445 -0.41275,-1.05833 -0.22225,-0.613835 -0.46566,-1.333502 -0.23284,-0.73025 -0.48684,-1.534583 -0.24341,-0.814917 -0.47625,-1.640417 h 1.66158 q 0.0847,0.381 0.17992,0.836083 0.10583,0.4445 0.21167,0.92075 0.11641,0.47625 0.23283,0.963084 0.127,0.47625 0.254,0.92075 0.13758,-0.465667 0.26458,-0.9525 0.13759,-0.486834 0.254,-0.9525 0.127,-0.47625 0.23284,-0.910167 0.11641,-0.4445 0.20108,-0.8255 h 1.143 q 0.0847,0.381 0.1905,0.8255 0.10583,0.433917 0.22225,0.910167 0.11642,0.465666 0.24342,0.9525 0.127,0.486833 0.26458,0.9525 0.127,-0.4445 0.254,-0.92075 0.127,-0.486834 0.23283,-0.963084 0.11642,-0.47625 0.21167,-0.92075 0.10583,-0.455083 0.1905,-0.836083 h 1.64042 q -0.23284,0.8255 -0.48684,1.640417 -0.24341,0.804333 -0.48683,1.534583 -0.23283,0.719667 -0.46567,1.333502 -0.22225,0.61383 -0.41275,1.05833 h -1.22766 q -0.26459,-0.80433 -0.51859,-1.598082 -0.254,-0.79375 -0.46566,-1.598083 z"
             style="font-style:normal;font-variant:normal;font-weight:bold;font-stretch:normal;font-size:10.5833px;line-height:1.25;font-family:Ubuntu;-inkscape-font-specification:'Ubuntu Bold';letter-spacing:0px;word-spacing:0px;fill:#ffffff;fill-opacity:1;stroke:none;stroke-width:1.6287"
             id="path1138-0-5-6-6-8-6-4-3" />
          <path
             inkscape:connector-curvature="0"
             d="m 163.918,100.42072 q 0.23284,0 0.4445,-0.0106 0.21167,-0.0106 0.33867,-0.0317 v -1.19591 q -0.0953,-0.02117 -0.28575,-0.04233 -0.1905,-0.02117 -0.34925,-0.02117 -0.22225,0 -0.42333,0.03175 -0.1905,0.02117 -0.33867,0.09525 -0.14817,0.07408 -0.23283,0.201082 -0.0847,0.127 -0.0847,0.3175 0,0.370418 0.24342,0.518578 0.254,0.13759 0.68791,0.13759 z m -0.127,-4.614338 q 0.6985,0 1.16417,0.15875 0.46567,0.158749 0.74083,0.455083 0.28575,0.296333 0.40217,0.719666 0.11642,0.423334 0.11642,0.941917 v 3.280832 q -0.33867,0.0741 -0.94192,0.16934 -0.60325,0.10583 -1.4605,0.10583 -0.53975,0 -0.98425,-0.0952 -0.43392,-0.0953 -0.75142,-0.30692 -0.3175,-0.22225 -0.48683,-0.5715 -0.16933,-0.34925 -0.16933,-0.857249 0,-0.486833 0.1905,-0.8255 0.20108,-0.338666 0.52916,-0.53975 0.32809,-0.201083 0.75142,-0.28575 0.42333,-0.09525 0.87842,-0.09525 0.30691,0 0.53975,0.03175 0.24341,0.02117 0.39158,0.0635 v -0.148166 q 0,-0.402167 -0.24342,-0.645584 -0.24341,-0.243416 -0.84666,-0.243416 -0.40217,0 -0.79375,0.0635 -0.39159,0.05292 -0.67734,0.15875 l -0.20108,-1.27 q 0.13758,-0.04233 0.33867,-0.08467 0.21166,-0.05292 0.45508,-0.08467 0.24342,-0.04233 0.508,-0.0635 0.27517,-0.03175 0.55033,-0.03175 z"
             style="font-style:normal;font-variant:normal;font-weight:bold;font-stretch:normal;font-size:10.5833px;line-height:1.25;font-family:Ubuntu;-inkscape-font-specification:'Ubuntu Bold';letter-spacing:0px;word-spacing:0px;fill:#ffffff;fill-opacity:1;stroke:none;stroke-width:1.6287"
             id="path1140-6-2-7-0-9-6-7-5" />
          <path
             inkscape:connector-curvature="0"
             d="m 167.64333,96.145048 q 0.40217,-0.116416 1.03717,-0.211666 0.635,-0.105834 1.3335,-0.105834 0.70908,0 1.17475,0.1905 0.47625,0.179917 0.75141,0.518583 0.27517,0.338667 0.39159,0.804334 0.11641,0.465666 0.11641,1.037166 v 3.143249 h -1.57691 v -2.952749 q 0,-0.762 -0.20109,-1.0795 -0.20108,-0.3175 -0.75141,-0.3175 -0.16934,0 -0.35984,0.02117 -0.1905,0.01058 -0.33866,0.03175 v 4.296839 h -1.57692 z"
             style="font-style:normal;font-variant:normal;font-weight:bold;font-stretch:normal;font-size:10.5833px;line-height:1.25;font-family:Ubuntu;-inkscape-font-specification:'Ubuntu Bold';letter-spacing:0px;word-spacing:0px;fill:#ffffff;fill-opacity:1;stroke:none;stroke-width:1.6287"
             id="path1142-1-5-5-6-7-4-7-6" />
          <path
             inkscape:connector-curvature="0"
             d="m 178.05732,97.012881 q -0.1905,0.211667 -0.51858,0.5715 -0.3175,0.359834 -0.68792,0.79375 -0.37042,0.433917 -0.75142,0.910167 -0.37041,0.47625 -0.67733,0.920752 h 2.68817 v 1.31233 h -4.60375 v -0.93133 q 0.22225,-0.381 0.52916,-0.814919 0.3175,-0.4445 0.65617,-0.889 0.34925,-0.4445 0.68792,-0.85725 0.33866,-0.423333 0.62441,-0.762 h -2.37066 v -1.312333 h 4.42383 z"
             style="font-style:normal;font-variant:normal;font-weight:bold;font-stretch:normal;font-size:10.5833px;line-height:1.25;font-family:Ubuntu;-inkscape-font-specification:'Ubuntu Bold';letter-spacing:0px;word-spacing:0px;fill:#ffffff;fill-opacity:1;stroke:none;stroke-width:1.6287"
             id="path1144-5-4-3-2-3-9-5-2" />
          <path
             inkscape:connector-curvature="0"
             d="m 180.74547,101.52138 h -1.57692 v -5.566832 h 1.57692 z m 0.14816,-7.175498 q 0,0.433916 -0.28575,0.687916 -0.27516,0.243417 -0.65616,0.243417 -0.381,0 -0.66675,-0.243417 -0.27517,-0.254 -0.27517,-0.687916 0,-0.433917 0.27517,-0.677334 0.28575,-0.254 0.66675,-0.254 0.381,0 0.65616,0.254 0.28575,0.243417 0.28575,0.677334 z"
             style="font-style:normal;font-variant:normal;font-weight:bold;font-stretch:normal;font-size:10.5833px;line-height:1.25;font-family:Ubuntu;-inkscape-font-specification:'Ubuntu Bold';letter-spacing:0px;word-spacing:0px;fill:#ffffff;fill-opacity:1;stroke:none;stroke-width:1.6287"
             id="path1146-5-7-5-6-6-5-4-9" />
          <path
             inkscape:connector-curvature="0"
             d="m 183.57121,98.558048 q 0,1.322917 1.06892,1.322917 0.24341,0 0.45508,-0.0635 0.21167,-0.0635 0.35983,-0.148167 v -2.518833 q -0.11641,-0.02117 -0.27516,-0.03175 -0.15875,-0.02117 -0.37042,-0.02117 -0.62442,0 -0.93133,0.41275 -0.30692,0.41275 -0.30692,1.04775 z m 3.46075,2.264832 q 0,1.36525 -0.6985,2.02142 -0.68792,0.66675 -2.13783,0.66675 -0.508,0 -1.016,-0.0952 -0.508,-0.0847 -0.94192,-0.23284 l 0.27517,-1.32291 q 0.37041,0.14816 0.77258,0.23283 0.41275,0.0847 0.93133,0.0847 0.67734,0 0.9525,-0.29633 0.28575,-0.29634 0.28575,-0.762 v -0.20109 q -0.254,0.11642 -0.52916,0.17992 -0.26459,0.0529 -0.58209,0.0529 -1.15358,0 -1.76741,-0.67733 -0.61384,-0.687919 -0.61384,-1.915586 0,-0.613833 0.1905,-1.11125 0.1905,-0.508 0.55034,-0.867833 0.37041,-0.359833 0.89958,-0.550333 0.52917,-0.201084 1.19592,-0.201084 0.28575,0 0.58208,0.03175 0.30692,0.02117 0.60325,0.0635 0.29633,0.04233 0.56092,0.105834 0.27516,0.05292 0.48683,0.116416 z"
             style="font-style:normal;font-variant:normal;font-weight:bold;font-stretch:normal;font-size:10.5833px;line-height:1.25;font-family:Ubuntu;-inkscape-font-specification:'Ubuntu Bold';letter-spacing:0px;word-spacing:0px;fill:#ffffff;fill-opacity:1;stroke:none;stroke-width:1.6287"
             id="path1148-4-4-6-1-1-04-8-1" />
          <path
             inkscape:connector-curvature="0"
             d="m 188.24904,98.780298 q 0,-0.740833 0.22225,-1.291167 0.23284,-0.560916 0.60325,-0.931333 0.37042,-0.370417 0.84667,-0.560916 0.48683,-0.1905 0.99483,-0.1905 1.18534,0 1.87325,0.730249 0.68792,0.719667 0.68792,2.12725 0,0.137584 -0.0106,0.306917 -0.0106,0.15875 -0.0212,0.28575 h -3.57717 q 0.0529,0.486833 0.45509,0.772582 0.40216,0.28575 1.0795,0.28575 0.43391,0 0.84666,-0.0741 0.42334,-0.0847 0.68793,-0.20108 l 0.21166,1.28058 q -0.127,0.0635 -0.33866,0.127 -0.21168,0.0635 -0.47625,0.10583 -0.254,0.0529 -0.55034,0.0847 -0.29634,0.0318 -0.59266,0.0318 -0.75143,0 -1.31234,-0.22225 -0.55034,-0.22225 -0.92075,-0.60325 -0.35984,-0.39158 -0.53975,-0.920746 -0.16934,-0.529167 -0.16934,-1.143 z m 3.70417,-0.60325 q -0.0106,-0.201083 -0.0741,-0.391583 -0.0529,-0.1905 -0.17992,-0.338667 -0.11641,-0.148167 -0.30691,-0.243417 -0.17992,-0.09525 -0.45509,-0.09525 -0.26458,0 -0.45508,0.09525 -0.1905,0.08467 -0.3175,0.232834 -0.127,0.148166 -0.20108,0.34925 -0.0635,0.1905 -0.0952,0.391583 z"
             style="font-style:normal;font-variant:normal;font-weight:bold;font-stretch:normal;font-size:10.5833px;line-height:1.25;font-family:Ubuntu;-inkscape-font-specification:'Ubuntu Bold';letter-spacing:0px;word-spacing:0px;fill:#2ecc70;fill-opacity:1;stroke:none;stroke-width:1.6287"
             id="path1150-7-4-2-8-2-8-1-2" />
          <path
             inkscape:connector-curvature="0"
             d="m 196.2712,101.52138 h -1.57691 v -5.566832 h 1.57691 z m 0.14817,-7.175498 q 0,0.433916 -0.28575,0.687916 -0.27517,0.243417 -0.65617,0.243417 -0.381,0 -0.66675,-0.243417 -0.27516,-0.254 -0.27516,-0.687916 0,-0.433917 0.27516,-0.677334 0.28575,-0.254 0.66675,-0.254 0.381,0 0.65617,0.254 0.28575,0.243417 0.28575,0.677334 z"
             style="font-style:normal;font-variant:normal;font-weight:bold;font-stretch:normal;font-size:10.5833px;line-height:1.25;font-family:Ubuntu;-inkscape-font-specification:'Ubuntu Bold';letter-spacing:0px;word-spacing:0px;fill:#2ecc70;fill-opacity:1;stroke:none;stroke-width:1.6287"
             id="path1152-6-3-9-7-9-7-2-7" />
          <path
             inkscape:connector-curvature="0"
             d="m 197.75286,96.145048 q 0.40218,-0.116416 1.03718,-0.211666 0.635,-0.105834 1.3335,-0.105834 0.70907,0 1.17475,0.1905 0.47625,0.179917 0.75141,0.518583 0.27516,0.338667 0.39159,0.804334 0.11641,0.465666 0.11641,1.037166 v 3.143249 h -1.57691 v -2.952749 q 0,-0.762 -0.20109,-1.0795 -0.20109,-0.3175 -0.75141,-0.3175 -0.16934,0 -0.35984,0.02117 -0.1905,0.01058 -0.33866,0.03175 v 4.296839 h -1.57693 z"
             style="font-style:normal;font-variant:normal;font-weight:bold;font-stretch:normal;font-size:10.5833px;line-height:1.25;font-family:Ubuntu;-inkscape-font-specification:'Ubuntu Bold';letter-spacing:0px;word-spacing:0px;fill:#2ecc70;fill-opacity:1;stroke:none;stroke-width:1.6287"
             id="path1154-5-0-1-9-3-1-8-0" />
          <path
             inkscape:connector-curvature="0"
             d="m 205.58452,100.38897 q 0.43392,0 0.61384,-0.0847 0.17991,-0.0847 0.17991,-0.328078 0,-0.1905 -0.23283,-0.328084 -0.23283,-0.148166 -0.70908,-0.328083 -0.37042,-0.137583 -0.67734,-0.28575 -0.29633,-0.148167 -0.508,-0.34925 -0.21166,-0.211667 -0.32808,-0.497417 -0.11642,-0.28575 -0.11642,-0.687916 0,-0.783167 0.58209,-1.23825 0.58208,-0.455083 1.59808,-0.455083 0.508,0 0.97367,0.09525 0.46566,0.08467 0.74083,0.190499 l -0.27517,1.227667 q -0.27516,-0.09525 -0.60325,-0.169333 -0.3175,-0.07408 -0.71966,-0.07408 -0.74084,0 -0.74084,0.41275 0,0.09525 0.0318,0.169334 0.0317,0.07408 0.127,0.148166 0.0952,0.0635 0.254,0.148167 0.16934,0.07408 0.42334,0.169333 0.51858,0.1905 0.85725,0.381 0.33866,0.179917 0.52916,0.402167 0.20109,0.211667 0.27517,0.47625 0.0847,0.264583 0.0847,0.613833 0,0.825498 -0.62442,1.248838 -0.61383,0.42333 -1.74625,0.42333 -0.74083,0 -1.23825,-0.127 -0.48683,-0.127 -0.67733,-0.21167 l 0.26458,-1.28058 q 0.40217,0.15875 0.8255,0.254 0.42333,0.0847 0.83608,0.0847 z"
             style="font-style:normal;font-variant:normal;font-weight:bold;font-stretch:normal;font-size:10.5833px;line-height:1.25;font-family:Ubuntu;-inkscape-font-specification:'Ubuntu Bold';letter-spacing:0px;word-spacing:0px;fill:#2ecc70;fill-opacity:1;stroke:none;stroke-width:1.6287"
             id="path1156-6-7-2-2-1-7-9-9" />
        </g>
      </g>
      <g
         id="g1031"
         transform="matrix(0.8062219,0,0,0.8062219,24.813264,25.180945)"
         style="stroke-width:1.24036">
        <g
           transform="translate(-14.117465,-52.006222)"
           fill="#2ecc70"
           id="g44"
           style="stroke-width:1.3195">
          <path
             transform="matrix(0.26458,0,0,0.26458,15.627,43.141)"
             d="m 476.84,517.88 c -0.3344,0.96411 -0.4043,1.7333 -0.4043,2.9277 v 0.95898 c 0,0.45332 0.0268,0.82781 0.0801,1.1211 h 24.377 l -0.0293,-5 h -17.785 c -0.95745,0.01 -1.7806,0.0111 -2.6113,-0.008 h -0.10937 z"
             id="path40"
             style="stroke-width:1.24036" />
          <path
             d="m 146.73,178.52 -0.67645,0.67644 1.5798,1.5798 -1.5798,1.5792 0.67645,0.67644 2.2557,-2.2557 z"
             stroke-width="0"
             id="path42" />
        </g>
        <path
           style="fill:#ffffff;stroke-width:0.328172"
           d="m 129.74302,121.97702 c -0.45624,0.006 -0.88552,0.10123 -1.28879,0.28577 -0.40923,0.18344 -0.76906,0.41973 -1.07952,0.709 l 0.78289,1.10068 c 0.0494,-0.0494 0.12341,-0.11308 0.22221,-0.19069 0.0988,-0.0847 0.21528,-0.16578 0.34932,-0.24338 0.14111,-0.0847 0.293,-0.15497 0.45527,-0.21135 0.16933,-0.0634 0.34901,-0.0956 0.5395,-0.0956 0.26106,0 0.4799,0.0637 0.65629,0.19068 0.17638,0.127 0.26458,0.34586 0.26458,0.65629 0,0.1411 -0.0316,0.28213 -0.0951,0.42323 -0.0635,0.13406 -0.15169,0.27177 -0.26458,0.4129 -0.11289,0.13404 -0.24354,0.27506 -0.39171,0.42322 -0.14817,0.1411 -0.30713,0.293 -0.47646,0.45527 -0.21873,0.21166 -0.44084,0.4229 -0.66661,0.63456 -0.21873,0.21167 -0.41634,0.44138 -0.59271,0.68834 -0.12172,0.16552 -0.22839,0.34085 -0.31988,0.52656 h 1.76835 c 0.0573,-0.0676 0.11771,-0.13708 0.1819,-0.20928 0.11289,-0.127 0.22939,-0.25056 0.34932,-0.37052 0.127,-0.127 0.2435,-0.23968 0.34933,-0.33848 0.20461,-0.19049 0.41259,-0.39192 0.62425,-0.60356 0.21167,-0.21169 0.40221,-0.42999 0.57154,-0.65578 0.16933,-0.23281 0.30708,-0.47289 0.41288,-0.71985 0.10585,-0.24693 0.15865,-0.50444 0.15865,-0.77254 h -5.3e-4 c 0,-0.32456 -0.0495,-0.61364 -0.14831,-0.86764 -0.0917,-0.26106 -0.23981,-0.4799 -0.44442,-0.65629 -0.19755,-0.18343 -0.45177,-0.3244 -0.76223,-0.42322 -0.31043,-0.0988 -0.68063,-0.1483 -1.11102,-0.1483 -0.0148,0 -0.0297,-1.9e-4 -0.0444,0 z"
           id="path30" />
        <path
           d="m 133.75853,123.67278 c 0.20461,-0.0847 0.41628,-0.17991 0.635,-0.28575 0.22578,-0.11289 0.4445,-0.23283 0.65617,-0.35983 0.21167,-0.13406 0.41275,-0.27164 0.60325,-0.41275 0.19755,-0.14817 0.37394,-0.30339 0.52917,-0.46567 h 1.1007 v 7.3342 h -1.5769 v -5.2811 c -0.21167,0.14111 -0.44803,0.27164 -0.70909,0.39158 -0.26105,0.11289 -0.51505,0.21167 -0.762,0.29634 z"
           fill="#ffffff"
           id="path32"
           style="stroke-width:1.3195" />
      </g>
    </g>
  </g>
</svg>
